<?xml version="1.0" encoding="utf-8"?>
<!-- Generator: Adobe Illustrator 17.1.0, SVG Export Plug-In . SVG Version: 6.00 Build 0)  -->
<svg version="1.2" baseProfile="tiny" id="Layer_1" xmlns="http://www.w3.org/2000/svg" xmlns:xlink="http://www.w3.org/1999/xlink"
	 x="0px" y="0px" viewBox="0 0 13.6 19.4" xml:space="preserve">
<g>
	<path fill="#5491FB" d="M7.5,18.7V2.4l4.9,4.9c0.3,0.3,0.7,0.3,1,0c0.3-0.3,0.3-0.7,0-1L7.3,0.2C7,0,6.6,0,6.3,0.2L0.2,6.4
		C0.1,6.5,0,6.7,0,6.8v0C0,7,0.1,7.2,0.2,7.3c0.3,0.3,0.7,0.3,1,0l4.9-4.9v16.3c0,0.4,0.3,0.7,0.7,0.7C7.2,19.4,7.5,19.1,7.5,18.7z"
		/>
</g>
</svg>
