<?xml version="1.0" encoding="utf-8"?>
<!-- Generator: Adobe Illustrator 17.1.0, SVG Export Plug-In . SVG Version: 6.00 Build 0)  -->
<svg version="1.2" baseProfile="tiny" id="Layer_1" xmlns="http://www.w3.org/2000/svg" xmlns:xlink="http://www.w3.org/1999/xlink"
	 x="0px" y="0px" viewBox="0 0 13.6 19.5" xml:space="preserve">
<g>
	<path fill="#5491FB" d="M6.1,0.7V17l-4.9-4.9c-0.3-0.3-0.7-0.3-1,0c-0.3,0.3-0.3,0.7,0,1l6.1,6.1c0.3,0.3,0.7,0.3,1,0l6.1-6.1
		c0.1-0.1,0.2-0.3,0.2-0.5v0c0-0.2-0.1-0.4-0.2-0.5c-0.3-0.3-0.7-0.3-1,0L7.5,17V0.7C7.5,0.3,7.2,0,6.8,0C6.5,0,6.1,0.3,6.1,0.7z"/>
</g>
</svg>
