<?xml version="1.0" encoding="utf-8"?>
<!-- Generator: Adobe Illustrator 17.1.0, SVG Export Plug-In . SVG Version: 6.00 Build 0)  -->
<svg version="1.2" baseProfile="tiny" id="Layer_1" xmlns="http://www.w3.org/2000/svg" xmlns:xlink="http://www.w3.org/1999/xlink"
	 x="0px" y="0px" viewBox="0 0 22 22" xml:space="preserve">
<g>
	<circle  cx="11" cy="11" r="11"/>
</g>
<path fill="#FFFFFF" d="M15.9,8.3c0.2-0.2,0.2-0.4,0-0.5l-0.5-0.5c-0.2-0.2-0.4-0.2-0.5,0h0l-5.2,5.4c-0.1,0.1-0.2,0.1-0.3,0
	l-2.1-2.3l0,0c-0.2-0.2-0.4-0.2-0.5,0L6,10.8c-0.1,0.1-0.1,0.2-0.1,0.3s0,0.2,0.1,0.3l0.1,0.1l3,3.3c0.1,0.1,0.2,0.1,0.3,0.1
	c0.1,0,0.2,0,0.3-0.1L15.9,8.3z"/>
</svg>
