<?xml version="1.0" encoding="utf-8"?>
<!-- Generator: Adobe Illustrator 17.1.0, SVG Export Plug-In . SVG Version: 6.00 Build 0)  -->
<svg version="1.2" baseProfile="tiny" id="Layer_1" xmlns="http://www.w3.org/2000/svg" xmlns:xlink="http://www.w3.org/1999/xlink"
	 x="0px" y="0px" viewBox="0 0 16.1 17.7" xml:space="preserve">
<g>
	<g>
		<path fill="#FFFFFF" d="M3.3,3.5c2.6-2.4,6.5-2.4,9.2-0.2l-2.1,0.1c-0.3,0-0.5,0.2-0.5,0.5c0,0.3,0.2,0.5,0.5,0.5h0l3.2-0.1
			c0.3,0,0.5-0.2,0.5-0.5V3.7l-0.1-3.2c0-0.3-0.2-0.5-0.5-0.5C13.2,0,13,0.2,13,0.5l0.1,2c-1.3-1.1-2.9-1.7-4.6-1.8
			C6.3,0.6,4.2,1.3,2.6,2.8c-2.2,2-3.1,5-2.4,7.8C0.3,10.8,0.5,11,0.7,11c0,0,0.1,0,0.1,0c0.3-0.1,0.4-0.3,0.4-0.6
			C0.6,7.9,1.4,5.2,3.3,3.5L3.3,3.5z M3.3,3.5"/>
		<path fill="#FFFFFF" d="M15.9,7.1c-0.1-0.3-0.3-0.4-0.6-0.4C15.1,6.8,14.9,7,15,7.3c0.6,2.5-0.2,5.1-2.1,6.9
			c-1.3,1.2-3,1.8-4.7,1.8c-1.6,0-3.2-0.5-4.5-1.6l2.1-0.2c0.3,0,0.5-0.3,0.4-0.5c0-0.3-0.3-0.5-0.5-0.4l-3.2,0.3
			C2.2,13.5,2,13.7,2,14l0.3,3.2c0,0.3,0.2,0.4,0.5,0.4c0,0,0,0,0,0c0.3,0,0.5-0.3,0.4-0.5l-0.2-2C4.4,16.2,6,16.9,7.7,17
			c0.1,0,0.3,0,0.4,0c2,0,3.9-0.7,5.4-2.1C15.7,12.9,16.6,9.9,15.9,7.1L15.9,7.1z M15.9,7.1"/>
	</g>
</g>
</svg>
